<svg viewBox="0 0 14 14" xmlns="http://www.w3.org/2000/svg">
  <path d="
    M  7  0
    l  1  1
    l -1  1
    l -1 -1
    Z
  " />
  <path d="
    M  9  2
    l  1  1
    l -1  1
    l -1 -1
    Z
  " />
  <path d="
    M  5  2
    l  3  3
    l -1  1
    l -3 -3
    Z
  " />
  <path d="
    M  3  4
    l  1  1
    l -3  3
    l -1 -1
    Z
  " />
  <path d="
    M  5  6
    l  3  3
    l -1  1
    l -3 -3
    Z
  " />
  <path d="
    M  3  8
    l  1  1
    l -1  1
    l -1 -1
    Z
  " />
  <path d="
    M  5  10
    l  3   3
    l -1   1
    l -3  -3
    Z
  " />
  <path d="
    M  11  4
    l  1   1
    l -3   3
    l -1  -1
    Z
  " />
  <path d="
    M  13  6
    l  1   1
    l -5   5
    l -1  -1
    Z
  " />
</svg>
